# xmcd
#
# Track frame offsets:
# 150
# 13153
# 25325
# 37395
# 49798
# 61489
# 72864
# 87095
# 99068
# 111845
# 121324
# 133469
# 145519
# 154954
# 167231
# 180254
# 194202
# 205844
# 217496
# 230655
# 242545
# 256685
# 268560
# 280079
# 293301
# 305219
# 317768
#
# Disc length: 4407 seconds
#
#
# Revision: 0
# Processed by: cddbd v1.5.2PL0 Copyright (c) Steve Scherf et al.
# Submitted via: FreeRIP 2.951 
#
DISCID=9711351b
DTITLE=Sister Rosetta Tharpe - Complete Recorded Works in Chronological Order - Disk 2
DYEAR=1995
DGENRE=Gospel
TTITLE0=I Want a Tall Skinny Papa
TTITLE1=What He Done For Me
TTITLE2=I Want Jesus To Walk Around My Bedside
TTITLE3=All Over This World
TTITLE4=Pure Religion
TTITLE5=This Train
TTITLE6=Down By The Riverside
TTITLE7=Rock Me
TTITLE8=Rock Me
TTITLE9=That's All
TTITLE10=Trouble In Mind
TTITLE11=Rock Daniel
TTITLE12=That's All
TTITLE13=Let That Liar Alone
TTITLE14=The Devil Has Thrown Him Down
TTITLE15=Sleep On Darling Mother
TTITLE16=God Don't Like It
TTITLE17=I Want To Live So God Can Use Me
TTITLE18=What's The News
TTITLE19=Nobody Knows, Nobody Cares
TTITLE20=Jesus Taught Me How To Smile
TTITLE21=Forgive Me Lord And Try Me One More Time
TTITLE22=What Is The Soul Of A Man
TTITLE23=Singing In My Soul
TTITLE24=I Claim Jesus First
TTITLE25=Strange Things Happening Every Day
TTITLE26=Two Little Fishes And Five Loaves Of Bread
EXTD=1942 - 1944
EXTT0=
EXTT1=
EXTT2=
EXTT3=
EXTT4=
EXTT5=
EXTT6=
EXTT7=
EXTT8=
EXTT9=
EXTT10=
EXTT11=
EXTT12=
EXTT13=
EXTT14=
EXTT15=
EXTT16=
EXTT17=
EXTT18=
EXTT19=
EXTT20=
EXTT21=
EXTT22=
EXTT23=
EXTT24=
EXTT25=
EXTT26=
PLAYORDER=
